<svg width="247" height="91" viewBox="0 0 247 91" fill="none" xmlns="http://www.w3.org/2000/svg">
<path fill-rule="evenodd" clip-rule="evenodd" d="M41.784 11.0144C45.9577 11.0144 50.9287 11.4692 52.4294 12.2776C52.4294 13.4902 52.4294 17.5827 52.4294 17.9869C52.4294 23.7467 55.4776 24.5551 55.4776 24.5551C55.4776 24.5551 55.4776 27.0309 55.4776 29.8603C55.4776 33.5486 54.7273 36.0243 54.7273 36.0243C53.1797 36.4285 49.3811 37.6411 45.2073 40.9252C42.1591 43.4009 39.4861 47.0893 39.4861 50.7776C39.4861 53.2028 39.8612 54.8701 40.6585 56.4869C40.6585 56.4869 39.1109 57.2953 36.4379 57.2953C33.0614 56.8911 29.2628 54.0112 26.9649 49.5144C23.9167 43.8051 22.4161 36.8327 18.9926 36.8327C15.5693 36.8327 15.5693 40.521 12.8962 40.521C9.84796 40.521 7.97206 35.2159 7.22175 32.7402C5.29908 29.0518 0.750224 27.8393 0.375016 22.0794H14.8188C14.8188 13.4902 14.8188 8.58924 14.8188 5.69877e-06C20.1182 5.69877e-06 23.1664 5.69877e-06 28.4656 5.69877e-06V9.39764C28.8876 9.80183 30.0132 10.206 31.5138 10.6102L30.0132 17.9869H25.8394L24.2918 24.5551H28.4656L26.9649 32.7402C26.9649 33.9528 26.5897 36.8327 26.9649 38.0453C27.7153 41.3294 29.6379 42.542 32.2642 42.542C36.0627 42.542 39.4861 40.521 39.4861 40.521L41.0337 35.2159C40.2834 35.2159 39.1109 35.2159 38.3606 35.2159C37.6102 35.2159 36.8599 35.2159 37.235 33.1444L39.1109 24.5551H43.2847L44.8323 17.9869H40.6585L41.784 11.0144Z" fill="#BE372F"/>
<path fill-rule="evenodd" clip-rule="evenodd" d="M33.4365 13.4902H38.7358L34.562 34.8117H29.2628L33.4365 13.4902Z" fill="#BE372F"/>
<path fill-rule="evenodd" clip-rule="evenodd" d="M37.2351 5.70928C38.7359 5.70928 40.2834 6.92188 40.2834 8.99341C40.2834 10.6102 38.7359 11.8733 37.2351 11.8733C35.6877 11.8733 34.1869 10.6102 34.1869 8.99341C34.1869 6.92188 35.6877 5.70928 37.2351 5.70928Z" fill="#BE372F"/>
<path fill-rule="evenodd" clip-rule="evenodd" d="M169.481 31.9318C172.53 31.9318 174.405 32.336 174.781 32.7402C175.531 32.7402 175.156 32.336 175.531 31.9318H175.953L177.829 37.6411L177.078 38.0453C175.953 36.4285 173.655 34.8117 169.856 34.8117C168.356 34.8117 165.308 35.2159 165.308 37.6411C165.308 42.542 179.376 39.7126 179.376 49.5144C179.376 54.0112 175.953 57.2953 169.481 57.2953C167.183 57.2953 165.308 56.8911 163.385 56.0827C163.01 56.0827 162.635 56.4869 162.635 56.8911L161.884 57.2953L159.586 49.9186L160.337 49.5144C162.259 51.9902 164.932 54.0112 169.481 54.0112C173.28 54.0112 174.405 52.3944 174.405 50.7776C174.405 45.0177 160.712 48.7061 160.712 38.8537C160.712 34.357 164.932 31.9318 169.481 31.9318Z" fill="#0F0E0C"/>
<path fill-rule="evenodd" clip-rule="evenodd" d="M90.4151 56.8911V56.0827C91.9626 55.6785 92.7129 55.2743 92.7129 52.7986V36.0243C92.7129 33.5486 91.9626 33.1444 90.4151 32.7402V31.9318H108.282L110.205 37.2369L109.455 37.6411C107.907 35.6201 106.406 35.2159 103.733 35.2159C103.358 35.2159 99.5597 35.2159 99.5597 35.2159C98.0121 35.2159 97.637 35.6201 97.637 36.8327V42.1378H103.733C106.031 42.1378 106.406 41.7336 106.782 40.521H107.532V47.0892H106.782C106.406 45.8261 106.031 45.4219 103.733 45.4219H97.637V51.9902C97.637 53.607 98.0121 53.607 99.5597 53.607C99.5597 53.607 104.484 53.607 104.859 53.607C107.157 53.607 109.033 53.607 110.955 51.1818L111.331 51.586L109.83 56.8911H90.4151Z" fill="#0F0E0C"/>
<path fill-rule="evenodd" clip-rule="evenodd" d="M84.7405 52.7986C84.7405 55.2743 85.4909 55.6784 86.6164 56.0827V56.8911H76.7682V56.0827C77.8938 55.6784 79.0193 55.2743 79.0193 52.7986V29.0518C79.0193 27.8392 78.269 27.8392 76.7682 27.8392C71.7973 27.8392 69.9215 27.8392 67.9988 29.8602H67.6235L69.5463 24.1509H94.2135L96.1362 29.8602H95.3859C93.8382 27.8392 91.5873 27.8392 86.6164 27.8392C85.1158 27.8392 84.7405 27.8392 84.7405 29.0518V52.7986Z" fill="#0F0E0C"/>
<path fill-rule="evenodd" clip-rule="evenodd" d="M121.226 44.6135L114.754 35.6201C113.628 33.5486 112.831 33.1444 111.331 32.7402V31.9318H121.976V32.7402C120.85 32.7402 120.053 33.9528 121.226 35.6201L124.227 40.521L128.072 35.2159C128.823 33.9528 128.823 32.7402 127.275 32.7402V31.9318H136.045V32.7402C134.497 33.1444 133.371 33.5486 131.871 35.2159L126.525 43.4009L132.996 53.2028C133.747 54.4154 134.497 55.2743 134.497 55.2743C134.497 55.2743 135.669 54.8701 137.17 50.7776L144.392 31.9318H148.941L157.335 53.2028C157.71 54.4154 158.836 55.6785 159.961 56.0827V56.8911H150.113V56.0827C150.864 56.0827 152.364 55.6785 151.239 53.2028L150.113 49.9186H140.594L139.468 53.2028C138.296 55.6785 140.218 56.0827 140.594 56.0827V56.8911H125.774V56.0827C126.525 56.0827 128.448 55.2743 126.9 53.2028L123.101 47.8977L119.303 53.607C118.177 55.2743 119.303 56.0827 120.053 56.0827V56.8911H111.331V56.0827C112.831 55.6785 114.379 54.8701 115.504 52.7986L121.226 44.6135ZM145.518 36.8327L141.719 46.685H148.941L145.518 36.8327Z" fill="#0F0E0C"/>
<path fill-rule="evenodd" clip-rule="evenodd" d="M2.25097 60.5795C2.25097 58.1038 1.1254 57.6996 -1.66784e-05 57.2954V56.8912H9.84806V57.2954C9.09775 57.6996 7.97217 58.1038 7.97217 60.5795V85.5388C7.97217 88.0145 9.09775 88.4187 9.84806 88.823V89.6314H-1.66784e-05V88.823C1.1254 88.4187 2.25097 88.0145 2.25097 85.5388V60.5795Z" fill="#0F0E0C"/>
<path fill-rule="evenodd" clip-rule="evenodd" d="M33.8119 89.6313H33.0616L17.4452 72.0486V85.5388C17.4452 88.0145 18.6177 88.4187 19.368 88.8229V89.6313H12.5211V88.8229C13.6467 88.4187 14.397 88.0145 14.397 85.5388V68.7645C14.397 66.2887 13.6467 65.8845 12.5211 65.4803V64.6719H18.9928L30.7637 78.6168V68.7645C30.7637 66.2887 30.0134 65.8845 28.8878 65.4803V64.6719H36.0628V65.4803C34.9374 65.8845 33.8119 66.2887 33.8119 68.7645V89.6313Z" fill="#0F0E0C"/>
<path fill-rule="evenodd" clip-rule="evenodd" d="M123.852 81.042C123.852 88.4187 117.802 90.0355 114.004 90.0355C109.83 90.0355 103.733 88.4187 103.733 81.4462V68.7645C103.733 66.2887 102.608 65.4803 101.436 65.4803V64.6719H110.955V65.4803C109.83 65.4803 108.657 66.2887 108.657 68.7645V81.042C108.657 85.1346 110.955 86.8019 114.754 86.8019C118.177 86.8019 120.85 85.1346 120.85 81.042V68.7645C120.85 66.2887 119.678 65.8845 118.552 65.4803V64.6719H125.774V65.4803C124.649 65.8845 123.852 66.2887 123.852 68.7645V81.042Z" fill="#0F0E0C"/>
<path fill-rule="evenodd" clip-rule="evenodd" d="M64.5754 69.5729C64.5754 67.9561 64.5755 67.9561 63.45 67.9561C59.6515 67.9561 58.901 67.9561 56.6033 70.836L56.228 70.4318L57.7287 64.6719H76.7683L78.6442 70.4318L77.8939 70.836C75.9712 67.9561 75.2209 67.9561 71.4222 67.9561C70.2968 67.9561 69.9216 67.9561 69.9216 69.5729V85.5388C69.9216 88.0145 70.6719 88.4187 72.1725 88.8229V89.6313H62.6997V88.8229C64.2003 88.4187 64.5754 88.0145 64.5754 85.5388V69.5729Z" fill="#0F0E0C"/>
<path fill-rule="evenodd" clip-rule="evenodd" d="M47.1303 64.2678C49.7564 64.2678 51.6792 65.0762 52.0543 65.0762C52.8046 65.4804 52.8046 64.672 52.8046 64.672L53.5551 64.2678L55.1025 70.4318H54.3054C53.1798 69.1687 51.304 67.5519 47.5054 67.5519C45.5828 67.5519 42.5345 67.9561 42.5345 70.4318C42.5345 74.9285 56.9784 72.4528 56.9784 82.2546C56.9784 86.8019 53.5551 89.6313 47.1303 89.6313C44.4572 89.6313 42.5345 89.2271 40.6587 88.8229C40.2836 88.8229 40.2835 89.2271 39.8614 89.2271C39.8614 89.6313 39.1111 89.6313 39.1111 89.6313L36.8601 82.7094L37.6104 82.2546C39.4863 84.7304 42.1593 86.8019 46.7082 86.8019C50.5068 86.8019 51.6792 85.1346 51.6792 83.5178C51.6792 77.7579 37.9857 81.4463 37.9857 71.6444C37.9857 67.1477 42.5345 64.2678 47.1303 64.2678Z" fill="#0F0E0C"/>
<path fill-rule="evenodd" clip-rule="evenodd" d="M154.662 85.5388C154.662 88.0145 155.788 88.4187 156.913 88.8229V89.6313H147.44V88.8229C148.566 88.4187 149.691 88.0145 149.691 85.5388V73.6654L141.344 90.0355H140.593L132.246 73.2612V85.5388C132.246 88.0145 133.371 88.4187 134.497 88.8229V89.6313H127.275V88.8229C128.072 88.4187 129.198 88.0145 129.198 85.5388V68.7645C129.198 66.2887 128.072 65.8845 127.275 65.4803V64.6719H134.497L142.094 81.042L150.488 64.6719H156.913V65.4803C155.788 65.8845 154.662 66.2887 154.662 68.7645V85.5388Z" fill="#0F0E0C"/>
<path fill-rule="evenodd" clip-rule="evenodd" d="M202.543 89.6313H201.793L186.176 72.0486V85.5388C186.176 88.0145 187.349 88.4187 188.099 88.8229V89.6313H180.877V88.8229C182.003 88.4187 183.175 88.0145 183.175 85.5388V68.7645C183.175 66.2887 182.378 65.8845 180.877 65.4803V64.6719H187.724L199.495 78.6168V68.7645C199.495 66.2887 198.369 65.8845 197.197 65.4803V64.6719H204.466V65.4803C203.668 65.8845 202.543 66.2887 202.543 68.7645V89.6313Z" fill="#0F0E0C"/>
<path fill-rule="evenodd" clip-rule="evenodd" d="M159.586 89.6313V88.8229C160.712 88.4187 161.509 87.6103 161.509 85.5388V68.7645C161.509 66.2887 160.712 65.8845 159.586 65.4803V64.6719H177.454L179.001 69.9771L178.579 70.4318C177.078 68.3603 175.156 67.9561 172.905 67.9561C172.53 67.9561 168.356 67.9561 168.356 67.9561C167.183 67.9561 166.808 68.3603 166.808 69.5729V74.9285H172.53C174.781 74.9285 175.531 74.0696 175.531 73.2612H176.328V79.8294H175.531C175.531 78.6168 174.781 78.2126 172.53 78.2126H166.808V84.7304C166.808 85.9935 167.183 86.3977 168.356 86.3977C168.356 86.3977 173.28 86.3977 173.655 86.3977C175.953 86.3977 178.204 86.3977 179.751 83.9219L180.502 84.3261L178.579 89.6313H159.586Z" fill="#0F0E0C"/>
<path fill-rule="evenodd" clip-rule="evenodd" d="M213.188 69.5729C213.188 67.9561 212.813 67.9561 212.016 67.9561C207.842 67.9561 207.467 67.9561 205.216 70.836L204.794 70.4318L206.341 64.6719H225.334L227.257 70.4318L226.507 70.836C224.584 67.9561 223.833 67.9561 220.035 67.9561C218.863 67.9561 218.487 67.9561 218.487 69.5729V85.5388C218.487 88.0145 219.238 88.4187 220.785 88.8229V89.6313H211.266V88.8229C212.438 88.4187 213.188 88.0145 213.188 85.5388V69.5729Z" fill="#0F0E0C"/>
<path fill-rule="evenodd" clip-rule="evenodd" d="M237.105 64.2678C239.778 64.2678 241.701 65.0762 242.451 65.0762C242.826 65.4804 242.826 64.672 242.826 64.672C243.201 64.672 243.577 64.2678 243.577 64.2678L245.077 70.4318H244.702C243.577 69.1687 241.279 67.5519 237.527 67.5519C235.604 67.5519 232.931 67.9561 232.931 70.4318C232.931 74.9285 247 72.4528 247 82.2546C247 86.8019 243.577 89.6313 237.105 89.6313C234.479 89.6313 232.556 89.2271 230.68 88.8229C230.305 88.8229 230.305 89.2271 230.305 89.2271C229.883 89.6313 229.508 89.6313 229.508 89.6313L226.882 82.7094L227.632 82.2546C229.508 84.7304 232.556 86.8019 236.73 86.8019C240.528 86.8019 241.701 85.1346 241.701 83.5178C241.701 77.7579 228.007 81.4463 228.007 71.6444C228.007 67.1477 232.556 64.2678 237.105 64.2678Z" fill="#0F0E0C"/>
<path fill-rule="evenodd" clip-rule="evenodd" d="M91.1654 64.6719C96.1363 64.6719 99.9349 66.7435 99.9349 71.2402C99.9349 76.1411 95.7612 76.9495 93.4633 77.3537C99.5597 79.8294 99.9349 88.4187 103.733 88.4187V88.8229C102.983 89.2271 102.233 89.6313 100.31 89.6313C91.9626 89.6313 93.8383 78.6168 88.5392 78.6168H85.8661V85.5388C85.8661 88.0145 86.6165 88.4187 87.7888 88.8229V89.6313H78.6442V88.8229C79.7697 88.4187 80.5668 88.0145 80.5668 85.5388V68.7645C80.5668 66.2887 79.7697 65.8845 78.6442 65.4803V64.6719H91.1654ZM85.8661 75.7369H88.9144C91.5874 75.7369 94.5888 74.5243 94.5888 71.6444C94.5888 69.9771 93.4633 67.5519 90.0398 67.5519H87.4137C86.2412 67.5519 85.8661 67.9561 85.8661 69.5729V75.7369Z" fill="#0F0E0C"/>
</svg>
